<?xml version="1.0" encoding="UTF-8"?>
<svg id="Layer_1" data-name="Layer 1" xmlns="http://www.w3.org/2000/svg" viewBox="0 0 342 18.4">
  <defs>
    <style>
      .cls-1 {
        fill: #9e9e9e;
      }
    </style>
  </defs>
  <path class="cls-1" d="M9.45,16.08H2.86V3.66h6.31v1.32H4.32v4.13h4.49v1.31H4.32v4.35h5.13v1.32Z"/>
  <path class="cls-1" d="M24.25,16.08h-1.42v-5.09c0-.98-.15-1.69-.45-2.13-.3-.44-.81-.66-1.53-.66-.61,0-1.12,.28-1.55,.83-.42,.55-.64,1.22-.64,1.99v5.06h-1.42v-5.27c0-.87-.17-1.53-.5-1.96s-.84-.65-1.52-.65c-.62,0-1.14,.26-1.54,.78-.4,.52-.61,1.2-.61,2.04v5.06h-1.42V7.21h1.42v1.4h.03c.32-.54,.71-.94,1.17-1.21,.46-.27,.99-.4,1.59-.4s1.13,.17,1.59,.51c.45,.34,.76,.78,.93,1.33,.33-.61,.74-1.07,1.23-1.38,.49-.31,1.06-.46,1.72-.46,.98,0,1.71,.3,2.2,.9,.49,.6,.73,1.5,.73,2.71v5.47Z"/>
  <path class="cls-1" d="M33.21,16.08h-1.42v-1.39h-.03c-.31,.53-.68,.93-1.13,1.2-.45,.27-.97,.4-1.56,.4-.83,0-1.5-.24-2.02-.73s-.77-1.13-.77-1.93c0-.76,.26-1.38,.78-1.88,.52-.5,1.26-.81,2.21-.95l2.53-.34v-.2c0-.75-.17-1.27-.52-1.59-.35-.31-.81-.47-1.39-.47-.46,0-.91,.09-1.33,.26-.43,.17-.83,.44-1.2,.8l-.83-.86c.5-.48,1.02-.83,1.59-1.06,.56-.23,1.18-.34,1.87-.34,1.07,0,1.88,.28,2.43,.83,.54,.55,.81,1.38,.81,2.48v5.77Zm-1.42-3.6v-.88l-2.14,.29c-.65,.09-1.14,.26-1.47,.49-.33,.24-.49,.61-.49,1.12s.15,.94,.46,1.22,.69,.42,1.13,.42c.77,0,1.38-.25,1.83-.75,.45-.5,.68-1.14,.68-1.91Z"/>
  <path class="cls-1" d="M36.69,5.09c-.29,0-.53-.1-.73-.29-.2-.19-.29-.43-.29-.71s.1-.52,.29-.71c.2-.19,.44-.29,.73-.29s.53,.1,.73,.29c.2,.19,.29,.43,.29,.71s-.1,.52-.29,.71c-.2,.19-.44,.29-.73,.29Zm.69,10.99h-1.42V7.21h1.42v8.87Z"/>
  <path class="cls-1" d="M40.26,16.08V2.95h1.42v13.13h-1.42Z"/>
</svg>