<?xml version="1.0" encoding="UTF-8"?>
<svg id="Layer_1" data-name="Layer 1" xmlns="http://www.w3.org/2000/svg" viewBox="0 0 342 18.4">
  <defs>
    <style>
      .cls-1 {
        fill: #9e9e9e;
      }
    </style>
  </defs>
  <path class="cls-1" d="M4.32,11.53v4.56h-1.46V3.66h3.41c1.33,0,2.36,.33,3.09,.99,.73,.66,1.1,1.59,1.1,2.79s-.41,2.18-1.22,2.94c-.81,.77-1.91,1.15-3.29,1.15h-1.64Zm0-6.55v5.23h1.52c1.01,0,1.77-.24,2.3-.71,.53-.47,.79-1.14,.79-2s-.24-1.48-.73-1.9c-.48-.42-1.21-.63-2.18-.63h-1.71Z"/>
  <path class="cls-1" d="M18.29,16.08h-1.42v-1.39h-.03c-.31,.53-.68,.93-1.13,1.2-.45,.27-.97,.4-1.56,.4-.83,0-1.5-.24-2.02-.73s-.77-1.13-.77-1.93c0-.76,.26-1.38,.78-1.88,.52-.5,1.26-.81,2.21-.95l2.53-.34v-.2c0-.75-.17-1.28-.52-1.59s-.81-.47-1.39-.47c-.46,0-.91,.09-1.33,.26-.43,.17-.83,.44-1.2,.8l-.83-.86c.5-.48,1.02-.83,1.59-1.06,.56-.22,1.18-.34,1.87-.34,1.07,0,1.88,.28,2.43,.83,.54,.55,.81,1.38,.81,2.48v5.77Zm-1.42-3.6v-.88l-2.14,.29c-.65,.09-1.14,.26-1.47,.49-.33,.24-.49,.61-.49,1.12s.15,.94,.46,1.22,.69,.42,1.13,.42c.77,0,1.38-.25,1.83-.75,.45-.5,.68-1.14,.68-1.91Z"/>
  <path class="cls-1" d="M20.2,15.42l.68-1.09c.39,.25,.77,.45,1.13,.58s.77,.2,1.2,.2c.61,0,1.07-.11,1.38-.34,.31-.23,.47-.56,.47-1.01,0-.36-.14-.67-.42-.92-.28-.25-.72-.45-1.31-.6-1.11-.28-1.87-.64-2.28-1.07-.41-.43-.62-.96-.62-1.59,0-.73,.27-1.34,.82-1.82,.55-.49,1.31-.73,2.3-.73,.47,0,.92,.06,1.35,.18,.43,.12,.86,.33,1.31,.62l-.63,1.07c-.4-.25-.77-.43-1.09-.53-.32-.1-.65-.15-.97-.15-.57,0-1.01,.11-1.31,.32-.3,.21-.45,.52-.45,.92s.15,.7,.46,.9,.81,.39,1.49,.57c.9,.24,1.58,.58,2.02,1.02,.45,.44,.67,1.01,.67,1.71,0,.82-.29,1.47-.87,1.95s-1.38,.71-2.39,.71c-.54,0-1.06-.08-1.56-.23-.5-.15-.96-.37-1.39-.65Z"/>
  <path class="cls-1" d="M27.73,15.42l.68-1.09c.39,.25,.77,.45,1.13,.58s.77,.2,1.2,.2c.61,0,1.07-.11,1.38-.34,.31-.23,.47-.56,.47-1.01,0-.36-.14-.67-.42-.92-.28-.25-.72-.45-1.31-.6-1.11-.28-1.87-.64-2.28-1.07-.41-.43-.62-.96-.62-1.59,0-.73,.27-1.34,.82-1.82,.55-.49,1.31-.73,2.3-.73,.47,0,.92,.06,1.35,.18,.43,.12,.86,.33,1.31,.62l-.63,1.07c-.4-.25-.77-.43-1.09-.53-.32-.1-.65-.15-.97-.15-.57,0-1.01,.11-1.31,.32-.3,.21-.45,.52-.45,.92s.15,.7,.46,.9,.81,.39,1.49,.57c.9,.24,1.58,.58,2.02,1.02,.45,.44,.67,1.01,.67,1.71,0,.82-.29,1.47-.87,1.95s-1.38,.71-2.39,.71c-.54,0-1.06-.08-1.56-.23-.5-.15-.96-.37-1.39-.65Z"/>
  <path class="cls-1" d="M47.27,7.21l-2.66,8.87h-1.47l-1.84-6.37c-.05-.16-.08-.3-.09-.41-.01-.11-.03-.24-.04-.39h-.03c-.01,.15-.03,.28-.06,.39-.03,.11-.07,.25-.12,.42l-1.98,6.37h-1.42l-2.69-8.87h1.49l1.84,6.67c.03,.1,.05,.21,.07,.35,.02,.13,.04,.28,.05,.45h.07c.01-.13,.03-.26,.05-.39s.06-.28,.1-.42l2.04-6.65h1.3l1.84,6.69c.03,.11,.05,.23,.07,.36,.02,.13,.04,.28,.06,.44h.07c0-.12,.02-.24,.05-.37s.06-.27,.1-.42l1.8-6.69h1.4Z"/>
  <path class="cls-1" d="M52.62,16.29c-1.31,0-2.36-.41-3.14-1.24-.78-.83-1.17-1.93-1.17-3.3,0-1.48,.4-2.65,1.21-3.48,.81-.84,1.91-1.26,3.31-1.27,1.32,0,2.36,.4,3.1,1.22,.74,.82,1.11,1.95,1.11,3.39s-.4,2.56-1.2,3.41c-.8,.85-1.87,1.27-3.22,1.27Zm.1-1.2c.92,0,1.62-.3,2.12-.9,.49-.6,.74-1.44,.74-2.53s-.25-1.97-.75-2.57c-.5-.6-1.2-.9-2.11-.9s-1.63,.31-2.17,.94c-.53,.62-.8,1.48-.8,2.56s.27,1.88,.81,2.49,1.26,.91,2.16,.91Z"/>
  <path class="cls-1" d="M63.68,8.43c-.11-.04-.21-.06-.29-.07-.09-.01-.2-.02-.33-.02-.72,0-1.29,.31-1.71,.92-.42,.62-.62,1.38-.62,2.31v4.52h-1.42V7.21h1.42v1.76h.03c.2-.62,.51-1.1,.93-1.42,.42-.33,.9-.49,1.44-.49,.18,0,.33,0,.46,.03,.12,.02,.24,.04,.33,.08l-.23,1.27Z"/>
  <path class="cls-1" d="M71.59,14.58c-.33,.57-.75,1-1.25,1.29s-1.1,.43-1.8,.43c-1.12,0-2.01-.4-2.67-1.19-.67-.79-1-1.88-1-3.24,0-1.47,.37-2.64,1.11-3.53,.74-.88,1.72-1.33,2.95-1.33,.61,0,1.14,.12,1.58,.36,.44,.24,.8,.6,1.08,1.08h.03V2.95h1.42v13.13h-1.42v-1.51h-.03Zm-5.27-2.79c0,1.02,.24,1.83,.71,2.42,.48,.59,1.12,.89,1.92,.89s1.44-.29,1.93-.86c.49-.57,.74-1.29,.74-2.17v-1.31c0-.72-.24-1.32-.71-1.82-.48-.5-1.08-.75-1.8-.75-.87,0-1.55,.32-2.04,.95-.5,.63-.75,1.51-.75,2.63Z"/>
</svg>